<?xml version="1.0" encoding="UTF-8" standalone="no"?>
<!DOCTYPE svg PUBLIC "-//W3C//DTD SVG 1.1//EN"
 "http://www.w3.org/Graphics/SVG/1.1/DTD/svg11.dtd">
<!-- Generated by graphviz version 2.40.1 (20161225.0304)
 -->
<!-- Title: %3 Pages: 1 -->
<svg width="1371pt" height="355pt"
 viewBox="0.00 0.00 1371.00 355.00" xmlns="http://www.w3.org/2000/svg" xmlns:xlink="http://www.w3.org/1999/xlink">
<g id="graph0" class="graph" transform="scale(1 1) rotate(0) translate(4 351)">
<title>%3</title>
<polygon fill="#ffffff" stroke="transparent" points="-4,4 -4,-351 1367,-351 1367,4 -4,4"/>
<text text-anchor="middle" x="681.5" y="-7.8" font-family="Times,serif" font-size="14.00" fill="#000000">Baccalauréat en génie logiciel</text>
<!-- GIA410 -->
<g id="node1" class="node">
<title>GIA410</title>
<polygon fill="#f8f8f8" stroke="#000000" points="71,-347 0,-347 0,-311 71,-311 71,-347"/>
<text text-anchor="middle" x="35.5" y="-325.3" font-family="Times,serif" font-size="14.00" fill="#000000">GIA410</text>
</g>
<!-- ENT201 -->
<g id="node2" class="node">
<title>ENT201</title>
<polygon fill="#f8f8f8" stroke="#000000" points="118,-275 41,-275 41,-239 118,-239 118,-275"/>
<text text-anchor="middle" x="79.5" y="-253.3" font-family="Times,serif" font-size="14.00" fill="#000000">ENT201</text>
</g>
<!-- GIA410&#45;&gt;ENT201 -->
<g id="edge1" class="edge">
<title>GIA410&#45;&gt;ENT201</title>
<path fill="none" stroke="#000000" d="M46.6031,-310.8314C51.5674,-302.7079 57.5222,-292.9637 62.9928,-284.0118"/>
<polygon fill="#000000" stroke="#000000" points="68.2474,-275.4133 66.8727,-286.2926 65.6402,-279.6797 63.0329,-283.9461 63.0329,-283.9461 63.0329,-283.9461 65.6402,-279.6797 59.1931,-281.5996 68.2474,-275.4133 68.2474,-275.4133"/>
</g>
<!-- GIA400 -->
<g id="node3" class="node">
<title>GIA400</title>
<polygon fill="#f8f8f8" stroke="#000000" points="160,-347 89,-347 89,-311 160,-311 160,-347"/>
<text text-anchor="middle" x="124.5" y="-325.3" font-family="Times,serif" font-size="14.00" fill="#000000">GIA400</text>
</g>
<!-- GIA400&#45;&gt;ENT201 -->
<g id="edge2" class="edge">
<title>GIA400&#45;&gt;ENT201</title>
<path fill="none" stroke="#000000" d="M113.1446,-310.8314C108.0674,-302.7079 101.9773,-292.9637 96.3824,-284.0118"/>
<polygon fill="#000000" stroke="#000000" points="91.0083,-275.4133 100.1243,-281.5082 93.6583,-279.6533 96.3083,-283.8933 96.3083,-283.8933 96.3083,-283.8933 93.6583,-279.6533 92.4923,-286.2783 91.0083,-275.4133 91.0083,-275.4133"/>
</g>
<!-- LOG210 -->
<g id="node4" class="node">
<title>LOG210</title>
<polygon fill="#f8f8f8" stroke="#000000" points="800,-203 723,-203 723,-167 800,-167 800,-203"/>
<text text-anchor="middle" x="761.5" y="-181.3" font-family="Times,serif" font-size="14.00" fill="#000000">LOG210</text>
</g>
<!-- GTI350 -->
<g id="node5" class="node">
<title>GTI350</title>
<polygon fill="#f8f8f8" stroke="#000000" points="1032,-131 961,-131 961,-95 1032,-95 1032,-131"/>
<text text-anchor="middle" x="996.5" y="-109.3" font-family="Times,serif" font-size="14.00" fill="#000000">GTI350</text>
</g>
<!-- LOG210&#45;&gt;GTI350 -->
<g id="edge3" class="edge">
<title>LOG210&#45;&gt;GTI350</title>
<path fill="none" stroke="#000000" d="M800.0998,-169.7987C802.9292,-168.8133 805.7507,-167.8691 808.5,-167 868.0612,-148.1711 887.3565,-150.8954 951.065,-130.9023"/>
<polygon fill="#000000" stroke="#000000" points="960.797,-127.7823 952.6481,-135.1204 956.0357,-129.3088 951.2743,-130.8352 951.2743,-130.8352 951.2743,-130.8352 956.0357,-129.3088 949.9006,-126.55 960.797,-127.7823 960.797,-127.7823"/>
</g>
<!-- LOG430 -->
<g id="node23" class="node">
<title>LOG430</title>
<polygon fill="#f8f8f8" stroke="#000000" points="753,-131 676,-131 676,-95 753,-95 753,-131"/>
<text text-anchor="middle" x="714.5" y="-109.3" font-family="Times,serif" font-size="14.00" fill="#000000">LOG430</text>
</g>
<!-- LOG210&#45;&gt;LOG430 -->
<g id="edge24" class="edge">
<title>LOG210&#45;&gt;LOG430</title>
<path fill="none" stroke="#000000" d="M749.6399,-166.8314C744.3371,-158.7079 737.9763,-148.9637 732.1327,-140.0118"/>
<polygon fill="#000000" stroke="#000000" points="726.5198,-131.4133 735.7543,-137.3273 729.2529,-135.6002 731.986,-139.7871 731.986,-139.7871 731.986,-139.7871 729.2529,-135.6002 728.2178,-142.2469 726.5198,-131.4133 726.5198,-131.4133"/>
</g>
<!-- LOG530 -->
<g id="node26" class="node">
<title>LOG530</title>
<polygon fill="#f8f8f8" stroke="#000000" points="848,-131 771,-131 771,-95 848,-95 848,-131"/>
<text text-anchor="middle" x="809.5" y="-109.3" font-family="Times,serif" font-size="14.00" fill="#000000">LOG530</text>
</g>
<!-- LOG210&#45;&gt;LOG530 -->
<g id="edge27" class="edge">
<title>LOG210&#45;&gt;LOG530</title>
<path fill="none" stroke="#000000" d="M773.6124,-166.8314C779.0281,-158.7079 785.5242,-148.9637 791.4921,-140.0118"/>
<polygon fill="#000000" stroke="#000000" points="797.2245,-131.4133 795.4217,-142.23 794.451,-135.5735 791.6774,-139.7338 791.6774,-139.7338 791.6774,-139.7338 794.451,-135.5735 787.9332,-137.2376 797.2245,-131.4133 797.2245,-131.4133"/>
</g>
<!-- LOG550 -->
<g id="node27" class="node">
<title>LOG550</title>
<polygon fill="#f8f8f8" stroke="#000000" points="943,-131 866,-131 866,-95 943,-95 943,-131"/>
<text text-anchor="middle" x="904.5" y="-109.3" font-family="Times,serif" font-size="14.00" fill="#000000">LOG550</text>
</g>
<!-- LOG210&#45;&gt;LOG550 -->
<g id="edge28" class="edge">
<title>LOG210&#45;&gt;LOG550</title>
<path fill="none" stroke="#000000" d="M797.5849,-166.8314C816.2989,-157.4089 839.3432,-145.8062 859.24,-135.7883"/>
<polygon fill="#000000" stroke="#000000" points="868.4266,-131.1628 861.5186,-139.6793 863.9607,-133.4114 859.4949,-135.66 859.4949,-135.66 859.4949,-135.66 863.9607,-133.4114 857.4711,-131.6407 868.4266,-131.1628 868.4266,-131.1628"/>
</g>
<!-- GTI745 -->
<g id="node11" class="node">
<title>GTI745</title>
<polygon fill="#f8f8f8" stroke="#000000" points="626,-59 555,-59 555,-23 626,-23 626,-59"/>
<text text-anchor="middle" x="590.5" y="-37.3" font-family="Times,serif" font-size="14.00" fill="#000000">GTI745</text>
</g>
<!-- GTI350&#45;&gt;GTI745 -->
<g id="edge8" class="edge">
<title>GTI350&#45;&gt;GTI745</title>
<path fill="none" stroke="#000000" d="M960.8943,-97.8905C957.7478,-96.8202 954.5862,-95.8359 951.5,-95 840.5207,-64.9423 705.5192,-50.366 636.2916,-44.4248"/>
<polygon fill="#000000" stroke="#000000" points="626.1624,-43.5772 636.5028,-39.9269 631.145,-43.9942 636.1276,-44.4112 636.1276,-44.4112 636.1276,-44.4112 631.145,-43.9942 635.7523,-48.8955 626.1624,-43.5772 626.1624,-43.5772"/>
</g>
<!-- LOG121 -->
<g id="node6" class="node">
<title>LOG121</title>
<polygon fill="#f8f8f8" stroke="#000000" points="775,-275 698,-275 698,-239 775,-239 775,-275"/>
<text text-anchor="middle" x="736.5" y="-253.3" font-family="Times,serif" font-size="14.00" fill="#000000">LOG121</text>
</g>
<!-- LOG121&#45;&gt;LOG210 -->
<g id="edge17" class="edge">
<title>LOG121&#45;&gt;LOG210</title>
<path fill="none" stroke="#000000" d="M742.8086,-238.8314C745.5117,-231.0463 748.7316,-221.7729 751.731,-213.1347"/>
<polygon fill="#000000" stroke="#000000" points="755.1065,-203.4133 756.0774,-214.3361 753.4664,-208.1366 751.8263,-212.86 751.8263,-212.86 751.8263,-212.86 753.4664,-208.1366 747.5753,-211.3839 755.1065,-203.4133 755.1065,-203.4133"/>
</g>
<!-- GTI611 -->
<g id="node7" class="node">
<title>GTI611</title>
<polygon fill="#f8f8f8" stroke="#000000" points="705,-203 634,-203 634,-167 705,-167 705,-203"/>
<text text-anchor="middle" x="669.5" y="-181.3" font-family="Times,serif" font-size="14.00" fill="#000000">GTI611</text>
</g>
<!-- LOG121&#45;&gt;GTI611 -->
<g id="edge4" class="edge">
<title>LOG121&#45;&gt;GTI611</title>
<path fill="none" stroke="#000000" d="M719.5931,-238.8314C711.7187,-230.3694 702.208,-220.1489 693.5987,-210.8971"/>
<polygon fill="#000000" stroke="#000000" points="686.6346,-203.4133 696.7412,-207.6684 690.0407,-207.0736 693.4469,-210.734 693.4469,-210.734 693.4469,-210.734 690.0407,-207.0736 690.1526,-213.7995 686.6346,-203.4133 686.6346,-203.4133"/>
</g>
<!-- LOG320 -->
<g id="node15" class="node">
<title>LOG320</title>
<polygon fill="#f8f8f8" stroke="#000000" points="502,-203 425,-203 425,-167 502,-167 502,-203"/>
<text text-anchor="middle" x="463.5" y="-181.3" font-family="Times,serif" font-size="14.00" fill="#000000">LOG320</text>
</g>
<!-- LOG121&#45;&gt;LOG320 -->
<g id="edge19" class="edge">
<title>LOG121&#45;&gt;LOG320</title>
<path fill="none" stroke="#000000" d="M697.9648,-246.8369C649.223,-233.9819 565.2579,-211.8373 512.1469,-197.83"/>
<polygon fill="#000000" stroke="#000000" points="502.2802,-195.2278 513.0972,-193.4268 507.1149,-196.5029 511.9496,-197.778 511.9496,-197.778 511.9496,-197.778 507.1149,-196.5029 510.802,-202.1292 502.2802,-195.2278 502.2802,-195.2278"/>
</g>
<!-- LOG330 -->
<g id="node21" class="node">
<title>LOG330</title>
<polygon fill="#f8f8f8" stroke="#000000" points="895,-203 818,-203 818,-167 895,-167 895,-203"/>
<text text-anchor="middle" x="856.5" y="-181.3" font-family="Times,serif" font-size="14.00" fill="#000000">LOG330</text>
</g>
<!-- LOG121&#45;&gt;LOG330 -->
<g id="edge21" class="edge">
<title>LOG121&#45;&gt;LOG330</title>
<path fill="none" stroke="#000000" d="M766.7811,-238.8314C782.1298,-229.6221 800.9498,-218.3301 817.3823,-208.4706"/>
<polygon fill="#000000" stroke="#000000" points="826.2286,-203.1628 819.9689,-212.1666 821.9411,-205.7353 817.6537,-208.3078 817.6537,-208.3078 817.6537,-208.3078 821.9411,-205.7353 815.3384,-204.4491 826.2286,-203.1628 826.2286,-203.1628"/>
</g>
<!-- GTI619 -->
<g id="node10" class="node">
<title>GTI619</title>
<polygon fill="#f8f8f8" stroke="#000000" points="658,-131 587,-131 587,-95 658,-95 658,-131"/>
<text text-anchor="middle" x="622.5" y="-109.3" font-family="Times,serif" font-size="14.00" fill="#000000">GTI619</text>
</g>
<!-- GTI611&#45;&gt;GTI619 -->
<g id="edge7" class="edge">
<title>GTI611&#45;&gt;GTI619</title>
<path fill="none" stroke="#000000" d="M657.6399,-166.8314C652.3371,-158.7079 645.9763,-148.9637 640.1327,-140.0118"/>
<polygon fill="#000000" stroke="#000000" points="634.5198,-131.4133 643.7543,-137.3273 637.2529,-135.6002 639.986,-139.7871 639.986,-139.7871 639.986,-139.7871 637.2529,-135.6002 636.2178,-142.2469 634.5198,-131.4133 634.5198,-131.4133"/>
</g>
<!-- GTI100 -->
<g id="node8" class="node">
<title>GTI100</title>
<polygon fill="#f8f8f8" stroke="#000000" points="726,-347 655,-347 655,-311 726,-311 726,-347"/>
<text text-anchor="middle" x="690.5" y="-325.3" font-family="Times,serif" font-size="14.00" fill="#000000">GTI100</text>
</g>
<!-- GTI100&#45;&gt;LOG121 -->
<g id="edge15" class="edge">
<title>GTI100&#45;&gt;LOG121</title>
<path fill="none" stroke="#000000" d="M702.1077,-310.8314C707.2978,-302.7079 713.5232,-292.9637 719.2425,-284.0118"/>
<polygon fill="#000000" stroke="#000000" points="724.736,-275.4133 723.1442,-286.263 722.044,-279.6268 719.352,-283.8402 719.352,-283.8402 719.352,-283.8402 722.044,-279.6268 715.5599,-281.4175 724.736,-275.4133 724.736,-275.4133"/>
</g>
<!-- GTI100&#45;&gt;GTI611 -->
<g id="edge5" class="edge">
<title>GTI100&#45;&gt;GTI611</title>
<path fill="none" stroke="#000000" d="M687.8403,-310.7623C684.2585,-286.201 677.8486,-242.2474 673.635,-213.3541"/>
<polygon fill="#000000" stroke="#000000" points="672.1381,-203.0896 678.0341,-212.3355 672.8596,-208.0373 673.5812,-212.9849 673.5812,-212.9849 673.5812,-212.9849 672.8596,-208.0373 669.1283,-213.6344 672.1381,-203.0896 672.1381,-203.0896"/>
</g>
<!-- LOG100 -->
<g id="node9" class="node">
<title>LOG100</title>
<polygon fill="#f8f8f8" stroke="#000000" points="842,-347 765,-347 765,-311 842,-311 842,-347"/>
<text text-anchor="middle" x="803.5" y="-325.3" font-family="Times,serif" font-size="14.00" fill="#000000">LOG100</text>
</g>
<!-- LOG100&#45;&gt;LOG121 -->
<g id="edge16" class="edge">
<title>LOG100&#45;&gt;LOG121</title>
<path fill="none" stroke="#000000" d="M786.5931,-310.8314C778.7187,-302.3694 769.208,-292.1489 760.5987,-282.8971"/>
<polygon fill="#000000" stroke="#000000" points="753.6346,-275.4133 763.7412,-279.6684 757.0407,-279.0736 760.4469,-282.734 760.4469,-282.734 760.4469,-282.734 757.0407,-279.0736 757.1526,-285.7995 753.6346,-275.4133 753.6346,-275.4133"/>
</g>
<!-- LOG100&#45;&gt;GTI611 -->
<g id="edge6" class="edge">
<title>LOG100&#45;&gt;GTI611</title>
<path fill="none" stroke="#000000" d="M803.9599,-310.7933C803.5201,-291.0634 799.9736,-259.6426 783.5,-239 778.662,-232.9376 744.2671,-217.0479 714.5099,-204.0642"/>
<polygon fill="#000000" stroke="#000000" points="705.0548,-199.9669 716.0197,-199.8141 709.6426,-201.955 714.2304,-203.9431 714.2304,-203.9431 714.2304,-203.9431 709.6426,-201.955 712.4411,-208.0721 705.0548,-199.9669 705.0548,-199.9669"/>
</g>
<!-- LOG240 -->
<g id="node19" class="node">
<title>LOG240</title>
<polygon fill="#f8f8f8" stroke="#000000" points="949,-275 872,-275 872,-239 949,-239 949,-275"/>
<text text-anchor="middle" x="910.5" y="-253.3" font-family="Times,serif" font-size="14.00" fill="#000000">LOG240</text>
</g>
<!-- LOG100&#45;&gt;LOG240 -->
<g id="edge18" class="edge">
<title>LOG100&#45;&gt;LOG240</title>
<path fill="none" stroke="#000000" d="M830.5006,-310.8314C843.9331,-301.7927 860.3473,-290.7476 874.8039,-281.0198"/>
<polygon fill="#000000" stroke="#000000" points="883.508,-275.1628 877.7237,-284.4791 879.3597,-277.9542 875.2114,-280.7456 875.2114,-280.7456 875.2114,-280.7456 879.3597,-277.9542 872.6992,-277.0121 883.508,-275.1628 883.508,-275.1628"/>
</g>
<!-- MAT472 -->
<g id="node12" class="node">
<title>MAT472</title>
<polygon fill="#f8f8f8" stroke="#000000" points="223,-203 146,-203 146,-167 223,-167 223,-203"/>
<text text-anchor="middle" x="184.5" y="-181.3" font-family="Times,serif" font-size="14.00" fill="#000000">MAT472</text>
</g>
<!-- MAT472&#45;&gt;GTI745 -->
<g id="edge9" class="edge">
<title>MAT472&#45;&gt;GTI745</title>
<path fill="none" stroke="#000000" d="M182.7376,-166.8946C181.8303,-146.3417 183.8825,-113.3009 203.5,-95 228.1483,-72.0059 447.8039,-52.1661 544.8025,-44.4433"/>
<polygon fill="#000000" stroke="#000000" points="554.9017,-43.6478 545.286,-48.9193 549.9171,-44.0405 544.9325,-44.4331 544.9325,-44.4331 544.9325,-44.4331 549.9171,-44.0405 544.5791,-39.947 554.9017,-43.6478 554.9017,-43.6478"/>
</g>
<!-- GTI770 -->
<g id="node14" class="node">
<title>GTI770</title>
<polygon fill="#f8f8f8" stroke="#000000" points="284,-131 213,-131 213,-95 284,-95 284,-131"/>
<text text-anchor="middle" x="248.5" y="-109.3" font-family="Times,serif" font-size="14.00" fill="#000000">GTI770</text>
</g>
<!-- MAT472&#45;&gt;GTI770 -->
<g id="edge11" class="edge">
<title>MAT472&#45;&gt;GTI770</title>
<path fill="none" stroke="#000000" d="M200.6499,-166.8314C208.1717,-158.3694 217.2565,-148.1489 225.4804,-138.8971"/>
<polygon fill="#000000" stroke="#000000" points="232.1327,-131.4133 228.8523,-141.877 228.8108,-135.1503 225.489,-138.8874 225.489,-138.8874 225.489,-138.8874 228.8108,-135.1503 222.1256,-135.8977 232.1327,-131.4133 232.1327,-131.4133"/>
</g>
<!-- MAT350 -->
<g id="node13" class="node">
<title>MAT350</title>
<polygon fill="#f8f8f8" stroke="#000000" points="318,-203 241,-203 241,-167 318,-167 318,-203"/>
<text text-anchor="middle" x="279.5" y="-181.3" font-family="Times,serif" font-size="14.00" fill="#000000">MAT350</text>
</g>
<!-- MAT350&#45;&gt;GTI770 -->
<g id="edge10" class="edge">
<title>MAT350&#45;&gt;GTI770</title>
<path fill="none" stroke="#000000" d="M271.6774,-166.8314C268.2891,-158.9617 264.2459,-149.5712 260.4924,-140.8533"/>
<polygon fill="#000000" stroke="#000000" points="256.4279,-131.4133 264.5158,-138.8185 258.4053,-136.0057 260.3826,-140.5981 260.3826,-140.5981 260.3826,-140.5981 258.4053,-136.0057 256.2494,-142.3777 256.4279,-131.4133 256.4279,-131.4133"/>
</g>
<!-- LOG635 -->
<g id="node28" class="node">
<title>LOG635</title>
<polygon fill="#f8f8f8" stroke="#000000" points="379,-131 302,-131 302,-95 379,-95 379,-131"/>
<text text-anchor="middle" x="340.5" y="-109.3" font-family="Times,serif" font-size="14.00" fill="#000000">LOG635</text>
</g>
<!-- MAT350&#45;&gt;LOG635 -->
<g id="edge29" class="edge">
<title>MAT350&#45;&gt;LOG635</title>
<path fill="none" stroke="#000000" d="M294.8929,-166.8314C301.9904,-158.454 310.548,-148.3531 318.324,-139.1749"/>
<polygon fill="#000000" stroke="#000000" points="324.8999,-131.4133 321.8691,-141.952 321.6678,-135.2282 318.4357,-139.0431 318.4357,-139.0431 318.4357,-139.0431 321.6678,-135.2282 315.0022,-136.1342 324.8999,-131.4133 324.8999,-131.4133"/>
</g>
<!-- LOG320&#45;&gt;GTI770 -->
<g id="edge12" class="edge">
<title>LOG320&#45;&gt;GTI770</title>
<path fill="none" stroke="#000000" d="M424.8151,-170.2126C421.6735,-169.0974 418.5396,-168.0132 415.5,-167 364.4181,-149.9727 348.0435,-149.7752 294.1468,-131.4167"/>
<polygon fill="#000000" stroke="#000000" points="284.4021,-128.0413 295.3242,-127.0622 289.1267,-129.6779 293.8513,-131.3144 293.8513,-131.3144 293.8513,-131.3144 289.1267,-129.6779 292.3785,-135.5665 284.4021,-128.0413 284.4021,-128.0413"/>
</g>
<!-- LOG320&#45;&gt;LOG635 -->
<g id="edge30" class="edge">
<title>LOG320&#45;&gt;LOG635</title>
<path fill="none" stroke="#000000" d="M432.4619,-166.8314C416.7295,-157.6221 397.4389,-146.3301 380.5956,-136.4706"/>
<polygon fill="#000000" stroke="#000000" points="371.5282,-131.1628 382.4316,-132.3311 375.8432,-133.6887 380.1583,-136.2147 380.1583,-136.2147 380.1583,-136.2147 375.8432,-133.6887 377.885,-140.0982 371.5282,-131.1628 371.5282,-131.1628"/>
</g>
<!-- LOG660 -->
<g id="node29" class="node">
<title>LOG660</title>
<polygon fill="#f8f8f8" stroke="#000000" points="569,-131 492,-131 492,-95 569,-95 569,-131"/>
<text text-anchor="middle" x="530.5" y="-109.3" font-family="Times,serif" font-size="14.00" fill="#000000">LOG660</text>
</g>
<!-- LOG320&#45;&gt;LOG660 -->
<g id="edge31" class="edge">
<title>LOG320&#45;&gt;LOG660</title>
<path fill="none" stroke="#000000" d="M480.4069,-166.8314C488.2813,-158.3694 497.792,-148.1489 506.4013,-138.8971"/>
<polygon fill="#000000" stroke="#000000" points="513.3654,-131.4133 509.8474,-141.7995 509.9593,-135.0736 506.5531,-138.734 506.5531,-138.734 506.5531,-138.734 509.9593,-135.0736 503.2588,-135.6684 513.3654,-131.4133 513.3654,-131.4133"/>
</g>
<!-- LOG710 -->
<g id="node30" class="node">
<title>LOG710</title>
<polygon fill="#f8f8f8" stroke="#000000" points="474,-131 397,-131 397,-95 474,-95 474,-131"/>
<text text-anchor="middle" x="435.5" y="-109.3" font-family="Times,serif" font-size="14.00" fill="#000000">LOG710</text>
</g>
<!-- LOG320&#45;&gt;LOG710 -->
<g id="edge32" class="edge">
<title>LOG320&#45;&gt;LOG710</title>
<path fill="none" stroke="#000000" d="M456.4344,-166.8314C453.374,-158.9617 449.7221,-149.5712 446.3318,-140.8533"/>
<polygon fill="#000000" stroke="#000000" points="442.6607,-131.4133 450.4793,-139.1023 444.473,-136.0733 446.2852,-140.7333 446.2852,-140.7333 446.2852,-140.7333 444.473,-136.0733 442.0912,-142.3644 442.6607,-131.4133 442.6607,-131.4133"/>
</g>
<!-- GTI310 -->
<g id="node16" class="node">
<title>GTI310</title>
<polygon fill="#f8f8f8" stroke="#000000" points="407,-203 336,-203 336,-167 407,-167 407,-203"/>
<text text-anchor="middle" x="371.5" y="-181.3" font-family="Times,serif" font-size="14.00" fill="#000000">GTI310</text>
</g>
<!-- GTI310&#45;&gt;GTI770 -->
<g id="edge13" class="edge">
<title>GTI310&#45;&gt;GTI770</title>
<path fill="none" stroke="#000000" d="M340.4619,-166.8314C324.7295,-157.6221 305.4389,-146.3301 288.5956,-136.4706"/>
<polygon fill="#000000" stroke="#000000" points="279.5282,-131.1628 290.4316,-132.3311 283.8432,-133.6887 288.1583,-136.2147 288.1583,-136.2147 288.1583,-136.2147 283.8432,-133.6887 285.885,-140.0982 279.5282,-131.1628 279.5282,-131.1628"/>
</g>
<!-- GTI310&#45;&gt;LOG710 -->
<g id="edge33" class="edge">
<title>GTI310&#45;&gt;LOG710</title>
<path fill="none" stroke="#000000" d="M387.6499,-166.8314C395.1717,-158.3694 404.2565,-148.1489 412.4804,-138.8971"/>
<polygon fill="#000000" stroke="#000000" points="419.1327,-131.4133 415.8523,-141.877 415.8108,-135.1503 412.489,-138.8874 412.489,-138.8874 412.489,-138.8874 415.8108,-135.1503 409.1256,-135.8977 419.1327,-131.4133 419.1327,-131.4133"/>
</g>
<!-- ING150 -->
<g id="node17" class="node">
<title>ING150</title>
<polygon fill="#f8f8f8" stroke="#000000" points="1267.5,-347 1193.5,-347 1193.5,-311 1267.5,-311 1267.5,-347"/>
<text text-anchor="middle" x="1230.5" y="-325.3" font-family="Times,serif" font-size="14.00" fill="#000000">ING150</text>
</g>
<!-- ING160 -->
<g id="node18" class="node">
<title>ING160</title>
<polygon fill="#f8f8f8" stroke="#000000" points="1174.5,-275 1100.5,-275 1100.5,-239 1174.5,-239 1174.5,-275"/>
<text text-anchor="middle" x="1137.5" y="-253.3" font-family="Times,serif" font-size="14.00" fill="#000000">ING160</text>
</g>
<!-- ING150&#45;&gt;ING160 -->
<g id="edge14" class="edge">
<title>ING150&#45;&gt;ING160</title>
<path fill="none" stroke="#000000" d="M1207.0322,-310.8314C1195.4673,-301.8779 1181.3596,-290.9558 1168.8817,-281.2955"/>
<polygon fill="#000000" stroke="#000000" points="1160.9603,-275.1628 1171.6224,-277.7263 1164.9139,-278.2237 1168.8676,-281.2846 1168.8676,-281.2846 1168.8676,-281.2846 1164.9139,-278.2237 1166.1128,-284.8429 1160.9603,-275.1628 1160.9603,-275.1628"/>
</g>
<!-- PHY332 -->
<g id="node34" class="node">
<title>PHY332</title>
<polygon fill="#f8f8f8" stroke="#000000" points="1362.5,-275 1286.5,-275 1286.5,-239 1362.5,-239 1362.5,-275"/>
<text text-anchor="middle" x="1324.5" y="-253.3" font-family="Times,serif" font-size="14.00" fill="#000000">PHY332</text>
</g>
<!-- ING150&#45;&gt;PHY332 -->
<g id="edge39" class="edge">
<title>ING150&#45;&gt;PHY332</title>
<path fill="none" stroke="#000000" d="M1254.2202,-310.8314C1265.9094,-301.8779 1280.1688,-290.9558 1292.7809,-281.2955"/>
<polygon fill="#000000" stroke="#000000" points="1300.7874,-275.1628 1295.585,-284.8161 1296.818,-278.2032 1292.8486,-281.2436 1292.8486,-281.2436 1292.8486,-281.2436 1296.818,-278.2032 1290.1123,-277.6712 1300.7874,-275.1628 1300.7874,-275.1628"/>
</g>
<!-- PHY335 -->
<g id="node35" class="node">
<title>PHY335</title>
<polygon fill="#f8f8f8" stroke="#000000" points="1268.5,-275 1192.5,-275 1192.5,-239 1268.5,-239 1268.5,-275"/>
<text text-anchor="middle" x="1230.5" y="-253.3" font-family="Times,serif" font-size="14.00" fill="#000000">PHY335</text>
</g>
<!-- ING150&#45;&gt;PHY335 -->
<g id="edge41" class="edge">
<title>ING150&#45;&gt;PHY335</title>
<path fill="none" stroke="#000000" d="M1230.5,-310.8314C1230.5,-303.131 1230.5,-293.9743 1230.5,-285.4166"/>
<polygon fill="#000000" stroke="#000000" points="1230.5,-275.4133 1235.0001,-285.4132 1230.5,-280.4133 1230.5001,-285.4133 1230.5001,-285.4133 1230.5001,-285.4133 1230.5,-280.4133 1226.0001,-285.4133 1230.5,-275.4133 1230.5,-275.4133"/>
</g>
<!-- LOG240&#45;&gt;LOG330 -->
<g id="edge22" class="edge">
<title>LOG240&#45;&gt;LOG330</title>
<path fill="none" stroke="#000000" d="M896.8735,-238.8314C890.654,-230.5386 883.1678,-220.557 876.34,-211.4533"/>
<polygon fill="#000000" stroke="#000000" points="870.31,-203.4133 879.91,-208.7133 873.31,-207.4133 876.31,-211.4133 876.31,-211.4133 876.31,-211.4133 873.31,-207.4133 872.71,-214.1133 870.31,-203.4133 870.31,-203.4133"/>
</g>
<!-- LOG410 -->
<g id="node22" class="node">
<title>LOG410</title>
<polygon fill="#f8f8f8" stroke="#000000" points="990,-203 913,-203 913,-167 990,-167 990,-203"/>
<text text-anchor="middle" x="951.5" y="-181.3" font-family="Times,serif" font-size="14.00" fill="#000000">LOG410</text>
</g>
<!-- LOG240&#45;&gt;LOG410 -->
<g id="edge23" class="edge">
<title>LOG240&#45;&gt;LOG410</title>
<path fill="none" stroke="#000000" d="M920.846,-238.8314C925.4237,-230.7925 930.9052,-221.1666 935.9588,-212.2918"/>
<polygon fill="#000000" stroke="#000000" points="941.0147,-203.4133 939.9767,-214.3299 938.5404,-207.7582 936.0662,-212.1031 936.0662,-212.1031 936.0662,-212.1031 938.5404,-207.7582 932.1558,-209.8763 941.0147,-203.4133 941.0147,-203.4133"/>
</g>
<!-- LOG515 -->
<g id="node25" class="node">
<title>LOG515</title>
<polygon fill="#f8f8f8" stroke="#000000" points="1085,-203 1008,-203 1008,-167 1085,-167 1085,-203"/>
<text text-anchor="middle" x="1046.5" y="-181.3" font-family="Times,serif" font-size="14.00" fill="#000000">LOG515</text>
</g>
<!-- LOG240&#45;&gt;LOG515 -->
<g id="edge26" class="edge">
<title>LOG240&#45;&gt;LOG515</title>
<path fill="none" stroke="#000000" d="M944.8185,-238.8314C962.5359,-229.4516 984.3345,-217.9112 1003.1984,-207.9244"/>
<polygon fill="#000000" stroke="#000000" points="1012.1924,-203.1628 1005.4601,-211.8188 1007.7735,-205.5023 1003.3545,-207.8418 1003.3545,-207.8418 1003.3545,-207.8418 1007.7735,-205.5023 1001.249,-203.8647 1012.1924,-203.1628 1012.1924,-203.1628"/>
</g>
<!-- MAT210 -->
<g id="node20" class="node">
<title>MAT210</title>
<polygon fill="#f8f8f8" stroke="#000000" points="444,-275 367,-275 367,-239 444,-239 444,-275"/>
<text text-anchor="middle" x="405.5" y="-253.3" font-family="Times,serif" font-size="14.00" fill="#000000">MAT210</text>
</g>
<!-- MAT210&#45;&gt;LOG320 -->
<g id="edge20" class="edge">
<title>MAT210&#45;&gt;LOG320</title>
<path fill="none" stroke="#000000" d="M420.1358,-238.8314C426.8161,-230.5386 434.8568,-220.557 442.1904,-211.4533"/>
<polygon fill="#000000" stroke="#000000" points="448.6671,-203.4133 445.8982,-214.0238 445.5304,-207.307 442.3938,-211.2008 442.3938,-211.2008 442.3938,-211.2008 445.5304,-207.307 438.8894,-208.3778 448.6671,-203.4133 448.6671,-203.4133"/>
</g>
<!-- STA206 -->
<g id="node24" class="node">
<title>STA206</title>
<polygon fill="#f8f8f8" stroke="#000000" points="1082.5,-275 1010.5,-275 1010.5,-239 1082.5,-239 1082.5,-275"/>
<text text-anchor="middle" x="1046.5" y="-253.3" font-family="Times,serif" font-size="14.00" fill="#000000">STA206</text>
</g>
<!-- STA206&#45;&gt;LOG515 -->
<g id="edge25" class="edge">
<title>STA206&#45;&gt;LOG515</title>
<path fill="none" stroke="#000000" d="M1046.5,-238.8314C1046.5,-231.131 1046.5,-221.9743 1046.5,-213.4166"/>
<polygon fill="#000000" stroke="#000000" points="1046.5,-203.4133 1051.0001,-213.4132 1046.5,-208.4133 1046.5001,-213.4133 1046.5001,-213.4133 1046.5001,-213.4133 1046.5,-208.4133 1042.0001,-213.4133 1046.5,-203.4133 1046.5,-203.4133"/>
</g>
<!-- MAT145 -->
<g id="node31" class="node">
<title>MAT145</title>
<polygon fill="#f8f8f8" stroke="#000000" points="299,-347 222,-347 222,-311 299,-311 299,-347"/>
<text text-anchor="middle" x="260.5" y="-325.3" font-family="Times,serif" font-size="14.00" fill="#000000">MAT145</text>
</g>
<!-- MAT145&#45;&gt;MAT472 -->
<g id="edge37" class="edge">
<title>MAT145&#45;&gt;MAT472</title>
<path fill="none" stroke="#000000" d="M253.852,-310.9306C246.7667,-292.4072 234.7598,-262.9968 221.5,-239 216.4416,-229.8456 210.2384,-220.2943 204.3671,-211.8146"/>
<polygon fill="#000000" stroke="#000000" points="198.4308,-203.4273 207.8811,-208.99 201.3194,-207.5085 204.208,-211.5897 204.208,-211.5897 204.208,-211.5897 201.3194,-207.5085 200.5349,-214.1894 198.4308,-203.4273 198.4308,-203.4273"/>
</g>
<!-- MAT145&#45;&gt;MAT350 -->
<g id="edge36" class="edge">
<title>MAT145&#45;&gt;MAT350</title>
<path fill="none" stroke="#000000" d="M262.9064,-310.7623C266.1471,-286.201 271.9465,-242.2474 275.7588,-213.3541"/>
<polygon fill="#000000" stroke="#000000" points="277.1132,-203.0896 280.2663,-213.5924 276.4591,-208.0467 275.805,-213.0037 275.805,-213.0037 275.805,-213.0037 276.4591,-208.0467 271.3437,-212.415 277.1132,-203.0896 277.1132,-203.0896"/>
</g>
<!-- MAT145&#45;&gt;MAT210 -->
<g id="edge34" class="edge">
<title>MAT145&#45;&gt;MAT210</title>
<path fill="none" stroke="#000000" d="M297.0896,-310.8314C316.2239,-301.3302 339.8229,-289.6121 360.1122,-279.5374"/>
<polygon fill="#000000" stroke="#000000" points="369.1735,-275.038 362.2182,-283.5159 364.6952,-277.2617 360.2169,-279.4855 360.2169,-279.4855 360.2169,-279.4855 364.6952,-277.2617 358.2155,-275.455 369.1735,-275.038 369.1735,-275.038"/>
</g>
<!-- MAT265 -->
<g id="node32" class="node">
<title>MAT265</title>
<polygon fill="#f8f8f8" stroke="#000000" points="213,-275 136,-275 136,-239 213,-239 213,-275"/>
<text text-anchor="middle" x="174.5" y="-253.3" font-family="Times,serif" font-size="14.00" fill="#000000">MAT265</text>
</g>
<!-- MAT145&#45;&gt;MAT265 -->
<g id="edge35" class="edge">
<title>MAT145&#45;&gt;MAT265</title>
<path fill="none" stroke="#000000" d="M238.7986,-310.8314C228.3079,-302.0485 215.5545,-291.3712 204.1806,-281.8489"/>
<polygon fill="#000000" stroke="#000000" points="196.1945,-275.1628 206.7508,-278.1318 200.0283,-278.3725 203.8621,-281.5822 203.8621,-281.5822 203.8621,-281.5822 200.0283,-278.3725 200.9734,-285.0326 196.1945,-275.1628 196.1945,-275.1628"/>
</g>
<!-- CTN258 -->
<g id="node33" class="node">
<title>CTN258</title>
<polygon fill="#f8f8f8" stroke="#000000" points="1363,-347 1286,-347 1286,-311 1363,-311 1363,-347"/>
<text text-anchor="middle" x="1324.5" y="-325.3" font-family="Times,serif" font-size="14.00" fill="#000000">CTN258</text>
</g>
<!-- CTN258&#45;&gt;PHY332 -->
<g id="edge38" class="edge">
<title>CTN258&#45;&gt;PHY332</title>
<path fill="none" stroke="#000000" d="M1324.5,-310.8314C1324.5,-303.131 1324.5,-293.9743 1324.5,-285.4166"/>
<polygon fill="#000000" stroke="#000000" points="1324.5,-275.4133 1329.0001,-285.4132 1324.5,-280.4133 1324.5001,-285.4133 1324.5001,-285.4133 1324.5001,-285.4133 1324.5,-280.4133 1320.0001,-285.4133 1324.5,-275.4133 1324.5,-275.4133"/>
</g>
<!-- CTN258&#45;&gt;PHY335 -->
<g id="edge40" class="edge">
<title>CTN258&#45;&gt;PHY335</title>
<path fill="none" stroke="#000000" d="M1300.7798,-310.8314C1289.0906,-301.8779 1274.8312,-290.9558 1262.2191,-281.2955"/>
<polygon fill="#000000" stroke="#000000" points="1254.2126,-275.1628 1264.8877,-277.6712 1258.182,-278.2032 1262.1514,-281.2436 1262.1514,-281.2436 1262.1514,-281.2436 1258.182,-278.2032 1259.415,-284.8161 1254.2126,-275.1628 1254.2126,-275.1628"/>
</g>
</g>
</svg>
